<?xml version="1.0" encoding="UTF-8"?>
<svg id="Layer_2" xmlns="http://www.w3.org/2000/svg" version="1.1" viewBox="0 0 818.33 170.87">
  <!-- Generator: Adobe Illustrator 29.7.1, SVG Export Plug-In . SVG Version: 2.1.1 Build 8)  -->
  <g>
    <path d="M96.77,46.05s-2.17,16.72-15.57,25.02c-13.4,8.3-20.17,14.55-20.17,39.06v38.91c0,1.73-1.4,3.13-3.13,3.13s-3.13-1.4-3.13-3.13v-38.91c0-24.51-6.77-30.77-20.17-39.06-13.4-8.3-15.57-25.02-15.57-25.02H0s3.06,23.36,25.4,37.15c6.89,3.96,15.45,6.64,15.45,26.04v42.64l17.04,16.6,17.04-16.6v-42.64c0-19.4,8.55-22.09,15.45-26.04,22.34-13.79,25.4-37.15,25.4-37.15h-19.02Z"/>
    <polygon points="87.48 31.98 57.89 2.39 28.31 31.98 57.89 61.37 87.48 31.98"/>
  </g>
  <g>
    <path d="M214.84,21.81c22.2,0,30.25,11.81,34.73,22.2,1.61,3.76,2.15,4.47,3.94,4.47,1.61,0,2.51-.72,2.51-2.69l-.18-13.25c0-5.01.36-8.77.36-13.07,0-3.94-2.15-5.37-6.62-5.37-9.31,0-23.81.72-37.77.72-7.88,0-18.26.18-28.46-.18l-16.29-.54c-2.86,0-3.58,1.61-3.58,2.86,0,1.43.54,2.69,3.4,3.22,4.65.9,10.92,2.68,10.92,8.41v121.36c0,9.31-5.73,10.92-11.28,12.17-2.33.54-2.86,1.61-2.86,3.04,0,1.25.72,2.86,3.04,2.86,1.97,0,12.53-1.07,22.73-1.07s20.76,1.07,22.73,1.07c2.33,0,3.04-1.61,3.04-2.86,0-1.43-.54-2.51-2.86-3.04-5.37-1.25-11.28-2.86-11.28-12.17v-49.4c0-6.09.72-6.98,8.59-6.98h11.1c13.6,0,15.75,9.49,17,15.39.72,3.04,1.79,3.94,3.58,3.94s2.86-.9,2.86-3.58c0-3.04-.72-13.42-.72-19.69,0-6.98.72-18.26.72-21.12,0-3.58-1.43-4.12-3.04-4.12-1.79,0-2.86,1.07-3.4,4.12-.9,5.91-3.4,17-17,17h-11.1c-7.88,0-8.59-1.07-8.59-6.98v-45.47c0-9.31,3.76-11.28,13.78-11.28Z"/>
    <path d="M332.19,157.11c-1.03-.51-2.22,0-3.42.68-.85.51-2.57,1.37-3.76,1.37-2.91,0-3.76-3.42-3.76-8.04v-75.41c0-12.48-11.29-20.69-28.56-20.69s-37.28,16.42-37.28,28.22c0,4.79,3.25,8.04,7.52,8.04,4.79,0,7.69-3.08,10.6-9.75,4.45-10.26,10.26-19.49,17.78-19.49,5.99,0,9.06,5.81,9.06,16.07v17.44c0,1.54-.68,2.57-2.05,3.08-31.81,11.46-48.74,32.49-48.74,48.91,0,14.02,10.77,23.08,26.51,23.08,8.72,0,18.47-3.59,25.14-11.29.51-.51.85-.51,1.2.17,2.74,5.13,8.72,8.55,16.07,8.55,6.33,0,13-2.74,14.71-7.52.68-1.88,0-2.91-1.03-3.42ZM300.38,141.72c0,10.43-7.52,17.96-14.88,17.96-8.55,0-13.51-5.47-13.51-14.88,0-12.83,8.55-31.29,27.02-38.65.85-.34,1.37,0,1.37,1.03v34.54Z"/>
    <path d="M378.18,162.41c-3.76-.85-9.06-2.74-9.06-11.63V59.46c0-1.2-.51-1.71-1.88-1.71-.85,0-1.2.17-2.22,1.2-4.62,4.62-15.22,7.52-21.89,8.55-2.22.34-2.57,1.54-2.57,2.74,0,1.37.51,2.39,2.39,2.91,3.76,1.03,5.64,2.39,5.64,7.18v70.45c0,8.89-5.3,10.77-9.06,11.63-2.22.51-2.74,1.54-2.74,2.91,0,1.2.68,2.74,2.91,2.74,1.88,0,10.26-1.03,18.98-1.03s17.44,1.03,19.32,1.03c2.22,0,2.91-1.54,2.91-2.74,0-1.37-.51-2.39-2.74-2.91Z"/>
    <path d="M360.65,42.68c6.45,0,11.15-5.71,11.15-13.39s-4.71-13.21-11.15-13.21-11.15,5.53-11.15,13.21,4.71,13.39,11.15,13.39Z"/>
    <path d="M438.55,55.02c-8.21,0-16.25,6.5-21.03,15.73-.68,1.37-1.03,1.37-1.03-.17v-13.51c0-1.2-.51-1.71-1.88-1.71-.85,0-1.2.17-2.22,1.2-4.62,4.62-15.22,7.52-21.89,8.55-2.22.34-2.56,1.54-2.56,2.74,0,1.37.51,2.39,2.39,2.91,3.76,1.03,5.64,2.39,5.64,7.18v72.85c0,8.89-5.3,10.77-9.06,11.63-2.22.51-2.74,1.54-2.74,2.91,0,1.2.68,2.74,2.91,2.74,1.88,0,10.26-1.03,18.98-1.03,9.92,0,20.86,1.03,22.74,1.03,2.22,0,2.91-1.54,2.91-2.74,0-1.37-.51-2.39-2.74-2.91-6.5-1.37-12.48-2.74-12.48-11.63v-61.22c0-3.42.51-6.67,1.88-10.09,2.74-6.33,7.01-11.29,11.29-11.29,5.64,0,6.16,9.23,14.71,9.23,4.79,0,7.7-3.42,7.7-9.23,0-8.04-5.3-13.17-13.51-13.17Z"/>
    <path d="M470.35,41.41c0-12.15,7.01-19.73,18.98-19.73,16.25,0,27.02,11.8,29.41,32.23.51,4.58,2.22,5.28,3.93,5.28,1.54,0,3.08-.88,3.08-3.7l-.34-13.74c0-6.34.34-12.68.34-15.15,0-8.28-19.32-12.86-32.15-12.86-24.45,0-39.33,15.5-39.33,39.28,0,44.74,61.05,42.8,61.05,86.48,0,14.79-7.52,23.42-20.35,23.42-16.93,0-26.68-11.45-33.52-39.28-.68-2.82-2.05-3.52-3.59-3.52s-3.59.88-3.59,3.87c0,1.41.68,8.45.68,15.68,0,6.34-.68,12.68-.68,15.5,0,7.57,13.17,15.67,35.23,15.67,25.99,0,42.24-16.91,42.24-42.98,0-50.9-61.39-52.66-61.39-86.48Z"/>
    <path d="M610.32,153c-.5-.51-1.16-.85-1.99-.85s-1.66.34-2.65,1.2c-4.98,4.28-10.62,6.33-17.25,6.33-17.91,0-28.36-17.96-28.36-48.57s8.29-48.39,22.56-48.39c10.78,0,16.25,10.26,21.73,23.09.66,1.54,1.49,2.56,3.32,2.56,1.49,0,2.82-.85,2.82-2.22,0-2.22-.33-5.81-.33-9.58s.33-5.47.33-7.7c0-6.16-12.11-13.85-27.37-13.85-27.04,0-44.62,23.26-44.62,59.17s17.58,56.6,44.62,56.6c11.61,0,20.9-4.45,27.2-13.17.66-.85.99-1.71.99-2.57s-.33-1.54-.99-2.05Z"/>
    <path d="M695.79,157.11c-1.01-.51-2.18,0-3.35.68-.84.51-2.51,1.37-3.69,1.37-2.85,0-3.69-3.42-3.69-8.04v-75.41c0-12.48-11.06-20.69-27.99-20.69s-36.54,16.42-36.54,28.22c0,4.79,3.19,8.04,7.38,8.04,4.69,0,7.54-3.08,10.39-9.75,4.36-10.26,10.05-19.49,17.43-19.49,5.87,0,8.88,5.81,8.88,16.07v17.44c0,1.54-.67,2.57-2.01,3.08-31.17,11.46-47.76,32.49-47.76,48.91,0,14.02,10.56,23.08,25.98,23.08,8.55,0,18.1-3.59,24.63-11.29.5-.51.84-.51,1.17.17,2.68,5.13,8.55,8.55,15.75,8.55,6.2,0,12.74-2.74,14.41-7.52.67-1.88,0-2.91-1-3.42ZM664.62,141.72c0,10.43-7.38,17.96-14.58,17.96-8.38,0-13.24-5.47-13.24-14.88,0-12.83,8.38-31.29,26.48-38.65.84-.34,1.34,0,1.34,1.03v34.54Z"/>
    <path d="M737.39,162.41c-3.65-.85-8.79-2.74-8.79-11.63V1.71c0-1.2-.5-1.71-1.82-1.71-.83,0-1.16.17-2.16,1.2-4.48,4.62-14.76,7.52-21.23,8.55-2.16.34-2.49,1.54-2.49,2.74,0,1.37.5,2.39,2.32,2.91,3.65,1.03,5.47,2.39,5.47,7.18v128.21c0,8.89-5.14,10.77-8.79,11.63-2.16.51-2.65,1.54-2.65,2.91,0,1.2.66,2.74,2.82,2.74,1.83,0,9.95-1.03,18.41-1.03s16.92,1.03,18.74,1.03c2.16,0,2.82-1.54,2.82-2.74,0-1.37-.5-2.39-2.65-2.91Z"/>
    <path d="M816.84,149.75c-1.16-.86-2.65-.68-3.98.51-6.63,6.16-12.44,9.41-21.06,9.41-18.08,0-28.69-18.3-28.69-46.51l.17-6.67c0-.68.5-1.2,1.49-1.2h48.1c3.82,0,5.47-2.22,5.47-8.72,0-26.16-13.27-41.55-33.5-41.55-26.21,0-43.29,23.6-43.29,59.68,0,33.86,17.58,55.92,44.78,55.92,13.93,0,26.21-6.67,31.18-17.1.66-1.37.5-2.91-.66-3.76ZM764.09,95.03c2.49-20.69,10.12-31.47,22.23-31.47,9.29,0,15.76,7.18,15.76,18.3,0,9.41-6.3,14.88-16.92,14.88h-19.74c-1,0-1.49-.51-1.33-1.71Z"/>
  </g>
</svg>