<svg xmlns="http://www.w3.org/2000/svg" viewBox="0 0 64 64">
  <defs>
    <linearGradient id="sol-grad" x1="0" y1="0" x2="64" y2="64" gradientUnits="userSpaceOnUse">
      <stop offset="0" stop-color="#00FFA3"/>
      <stop offset="0.5" stop-color="#5570FF"/>
      <stop offset="1" stop-color="#DC1FFF"/>
    </linearGradient>
  </defs>
  <circle cx="32" cy="32" r="32" fill="#000"/>
  <path fill="url(#sol-grad)" d="M16.2 41.7c0.5-0.5 1.2-0.8 2-0.8h29c1.3 0 2 1.6 1.1 2.5l-5.5 5.5c-0.5 0.5-1.2 0.8-2 0.8h-29c-1.3 0-2-1.6-1.1-2.5l5.5-5.5z"/>
  <path fill="url(#sol-grad)" d="M16.2 15.6c0.5-0.5 1.2-0.8 2-0.8h29c1.3 0 2 1.6 1.1 2.5l-5.5 5.5c-0.5 0.5-1.2 0.8-2 0.8h-29c-1.3 0-2-1.6-1.1-2.5l5.5-5.5z"/>
  <path fill="url(#sol-grad)" d="M42.8 28.3c-0.5-0.5-1.2-0.8-2-0.8h-29c-1.3 0-2 1.6-1.1 2.5l5.5 5.5c0.5 0.5 1.2 0.8 2 0.8h29c1.3 0 2-1.6 1.1-2.5l-5.5-5.5z"/>
</svg>
