<?xml version="1.0" encoding="UTF-8"?><svg fill="#ffffff" id="uuid-119fefd9-7387-471e-b43c-72d8dfc45356" xmlns="http://www.w3.org/2000/svg" viewBox="0 0 300 66.38"><defs></defs><path class="uuid-e99aa685-9af9-455d-b95e-0fac47f0d3e7" d="m91.03,26.34v7.01c0,1.67.01,3.04.04,4.11.01.34.2.57.55.68l3.12.89.06,1.04c-2.19-.04-4.48-.07-6.86-.07s-4.64.02-6.62.07l-.11-1.04,2.85-.78c.37-.12.56-.33.57-.66.03-1.15.04-2.56.04-4.23v-16.92c0-.71,0-1.36,0-1.94,0-.58-.02-1.12-.04-1.59-.01-.37-.18-.6-.51-.7l-2.85-.83-.06-1.09c1.99.06,3.86.09,5.64.09h5.36c3.44,0,7.01-.03,10.7-.09l.14.17-1.32,7.06-1.15.17-1.35-5.14h-8.22v11.74h1.21c1.25,0,2.57-.01,3.97-.04.38-.01.62-.2.72-.57l.77-2.91,1.4-.07c-.04,2.06-.06,3.59-.06,4.61s.02,2.51.06,4.54l-1.4.13-.78-3.01c-.1-.37-.32-.57-.66-.59-1.43-.03-2.78-.04-4.04-.04h-1.19Zm21-1.52c0,4.53.77,8,2.3,10.4,1.53,2.4,3.78,3.6,6.74,3.6s5.08-1.09,6.48-3.27c1.4-2.18,2.09-5.61,2.09-10.28,0-4.39-.74-7.76-2.21-10.12-1.48-2.35-3.76-3.54-6.85-3.54s-5.17,1.09-6.52,3.28c-1.36,2.19-2.03,5.5-2.03,9.93m24.74-.29c0,4.9-1.44,8.84-4.33,11.82-2.89,2.98-6.91,4.47-12.06,4.47s-8.75-1.38-11.43-4.13c-2.69-2.75-4.04-6.48-4.04-11.18s1.45-8.77,4.35-11.62c2.91-2.85,6.92-4.28,12.05-4.28s8.74,1.33,11.43,4c2.69,2.67,4.04,6.31,4.04,10.93m13.68,8.84c0,.85,0,1.61,0,2.28,0,.67.02,1.28.04,1.83.01.46.17.73.49.83l2.21.72.06,1.04c-1.57-.04-3.52-.07-5.84-.07-2.48,0-4.68.02-6.62.07l-.11-1.04,2.85-.78c.36-.1.54-.32.57-.66.01-.57.03-1.2.04-1.91,0-.7,0-1.47,0-2.33v-16.92c0-.71,0-1.36,0-1.94,0-.58-.02-1.12-.04-1.59-.01-.37-.18-.6-.51-.7l-2.85-.83-.06-1.09c1.99.06,4.01.09,6.09.09.44,0,.99-.01,1.64-.04.65-.02,1.44-.04,2.38-.07.85-.03,1.57-.04,2.14-.06.57,0,1.02-.01,1.35-.01,3.64,0,6.36.61,8.18,1.83,1.82,1.21,2.73,2.99,2.73,5.32,0,2.1-.56,3.8-1.67,5.09-1.11,1.29-2.75,2.28-4.9,2.98,1.2,1.75,2.11,3.17,2.75,4.27.64,1.09,1.29,2.16,1.94,3.22.65,1.05,1.25,1.99,1.78,2.79.53.8,1.03,1.44,1.49,1.91.26.21.5.39.73.55.24.15.48.29.74.41.25.11.52.2.81.28s.62.15.97.22l.08,1.09c-1.38.2-2.97.3-4.75.3-1.41,0-2.41-.09-2.97-.28-.57-.18-1.07-.45-1.51-.78-.65-.51-1.25-1.17-1.8-2-.54-.82-1.12-1.75-1.73-2.78-.61-1.04-1.23-2.13-1.88-3.29s-1.32-2.3-2.03-3.43c-.21-.33-.38-.59-.52-.81-.13-.21-.27-.37-.41-.48-.13-.1-.28-.18-.42-.23-.15-.05-.34-.08-.57-.09l-.89-.02v7.09Zm0-8.96c.75.04,1.43.07,2.04.07,2.01,0,3.49-.51,4.42-1.51.93-1.01,1.41-2.59,1.41-4.73s-.45-3.59-1.35-4.54c-.91-.95-2.3-1.43-4.2-1.43-.33,0-.68.01-1.05.04-.38.03-.8.07-1.27.12v11.98Zm31.39,15.61c-2.49,0-4.87.02-7.13.07l-.11-1.04,3.4-.93c.35-.12.54-.34.55-.68.03-1.06.04-2.43.04-4.1V12.56h-6.12l-1.95,5.64-1.19.2-.55-7.93.14-.17c3.48.06,6.81.09,10,.09h5.92c3.19,0,6.54-.03,10.07-.09l.13.17-1.41,7.75-1.19.2-1.38-5.86h-6.14v20.76c0,1.67.01,3.04.04,4.1.01.34.2.56.57.68l3.33.93.07,1.04c-2.35-.04-4.72-.07-7.12-.07m14.48-29.72c1.96.06,4.14.09,6.52.09s4.64-.03,6.53-.09l.11,1.09-2.76.78c-.34.09-.52.3-.55.64-.01.51-.02,1.07-.03,1.65,0,.59-.01,1.22-.01,1.9v11.7c0,3.87.58,6.54,1.74,8.02,1.17,1.48,3.05,2.22,5.65,2.22s4.49-.78,5.77-2.35c1.28-1.57,1.92-4.1,1.92-7.62v-11.98c0-.68,0-1.31-.02-1.9-.01-.59-.03-1.14-.04-1.65-.01-.32-.2-.54-.55-.63l-2.63-.75-.07-1.13c1.88.06,3.51.09,4.88.09,1.27,0,2.86-.03,4.79-.09l.11,1.09-2.89.83c-.34.1-.51.33-.53.7-.01.49-.02,1.01-.03,1.59,0,.58-.01,1.22-.01,1.94v10.8c0,4.88-1,8.37-3,10.49-2,2.12-4.91,3.17-8.73,3.17-4.34,0-7.54-1.01-9.61-3.03-2.07-2.02-3.09-5.25-3.09-9.7v-11.73c0-.71,0-1.36,0-1.94,0-.58-.02-1.11-.04-1.59-.01-.37-.18-.6-.51-.7l-2.85-.83-.06-1.09Zm39.87,27.21c.01.41.19.66.53.74l2.72.75.07,1.09c-1.91-.04-3.49-.07-4.72-.07s-2.8.02-4.78.07l-.1-1.04,2.84-.78c.37-.12.56-.33.57-.66.03-1.15.04-2.56.04-4.23v-16.92c0-1.42-.01-2.59-.04-3.53-.01-.37-.18-.6-.51-.7l-2.85-.83-.06-1.09c1.98.06,3.5.09,4.56.09,1.39,0,2.7-.03,3.95-.09l14.12,17.68c.57.71,1.14,1.46,1.74,2.25-.03-.98-.04-1.92-.04-2.82v-11.06c0-1.37-.01-2.55-.04-3.54-.01-.33-.2-.54-.55-.64l-2.72-.74-.07-1.13c1.96.06,3.54.09,4.75.09s2.81-.03,4.72-.09l.1,1.09-2.88.83c-.33.1-.49.33-.51.7-.04.93-.06,2.11-.06,3.52v23.59l-2.44.23-16.71-20.96c-.49-.64-1.07-1.39-1.72-2.27.03,1.04.04,2.01.04,2.88v13.45c0,1.67.01,3.05.04,4.14m32.74-27.12h5.35c3.44,0,7.01-.03,10.7-.09l.14.17-1.32,7.07-1.14.17-1.36-5.14h-8.22v11.26h1.14c1.23,0,2.56-.01,3.97-.04.37-.01.61-.2.72-.57l.76-2.91,1.4-.07c-.04,2.05-.06,3.59-.06,4.61s.02,2.51.06,4.54l-1.4.11-.78-2.99c-.12-.38-.33-.58-.66-.59-1.44-.03-2.79-.04-4.04-.04h-1.12v7.28c0,1.56.01,3.1.04,4.63h8.49l2.67-5.58,1.3-.2-.51,7.95-.15.15c-3.53-.04-6.96-.07-10.3-.07h-5.62c-1.82,0-3.7.01-5.64.04l-.11-1.04,2.85-.78c.36-.1.54-.32.57-.66.01-.57.03-1.2.04-1.91,0-.7,0-1.47,0-2.33v-16.92c0-.71,0-1.36,0-1.94,0-.58-.02-1.12-.04-1.59-.01-.37-.18-.6-.51-.7l-2.85-.83-.07-1.09c1.99.06,3.86.09,5.64.09"></path><path class="uuid-04ffe122-7a9f-4b4e-86d3-e2b36b8abb1e" d="m81.77,49.67c.96.03,1.95.04,2.96.04.37-.01.95-.04,1.74-.06.79-.03,1.33-.04,1.62-.04,1.73,0,3.04.28,3.93.84.88.56,1.32,1.36,1.32,2.41,0,1.65-.97,2.78-2.92,3.41,1.13.16,2,.55,2.62,1.19.61.63.92,1.42.92,2.37,0,1.37-.55,2.44-1.66,3.19-1.1.75-2.66,1.13-4.69,1.13-.4,0-.81-.01-1.25-.04-.44-.02-.98-.04-1.63-.04-1,0-1.97.01-2.91.03l-.05-.51,1.38-.38c.17-.05.26-.15.28-.32,0-.27.01-.58.02-.92,0-.34,0-.71,0-1.13v-8.2c0-.34,0-.66,0-.94,0-.28-.01-.54-.02-.77,0-.18-.09-.29-.25-.34l-1.38-.4-.03-.53Zm4.75,7.28v6.18c.38.06.79.09,1.21.09.94,0,1.65-.27,2.13-.82.48-.55.73-1.34.73-2.38s-.25-1.81-.74-2.32c-.49-.51-1.29-.76-2.39-.76-.32,0-.63,0-.94.01m0-.93c.35,0,.68.01,1,.01.88,0,1.53-.21,1.95-.63.42-.42.63-1.14.63-2.15,0-.94-.22-1.63-.65-2.04-.44-.41-1.06-.62-1.89-.62-.13,0-.28,0-.46.01-.18.01-.37.03-.58.06v5.35Zm8.8-6.35c.95.03,2,.04,3.16.04s2.25-.01,3.16-.04l.05.53-1.34.38c-.16.04-.25.15-.27.31,0,.25-.01.52-.01.8,0,.28,0,.59,0,.92v5.67c0,1.87.28,3.17.84,3.89.57.72,1.48,1.07,2.74,1.07s2.18-.38,2.8-1.14c.62-.76.93-1.99.93-3.69v-5.8c0-.33,0-.64-.01-.92,0-.28-.01-.55-.02-.8,0-.15-.09-.26-.27-.31l-1.27-.36-.03-.55c.91.03,1.7.04,2.36.04.61,0,1.39-.01,2.32-.04l.05.53-1.4.4c-.17.05-.25.16-.26.34,0,.24-.01.49-.01.77,0,.28,0,.59,0,.94v5.23c0,2.36-.48,4.05-1.45,5.08-.97,1.03-2.38,1.54-4.23,1.54-2.1,0-3.65-.49-4.65-1.47-1-.98-1.5-2.55-1.5-4.7v-5.68c0-.34,0-.66,0-.94,0-.28-.01-.54-.02-.77,0-.18-.09-.29-.25-.34l-1.38-.4-.03-.53Zm23.56.97c-.44-.17-.91-.26-1.43-.26-.73,0-1.34.21-1.85.64-.5.43-.75.98-.75,1.65,0,.4.08.75.25,1.04.16.29.39.54.66.77.27.22.59.43.94.61.35.18.72.35,1.1.53.42.2.84.42,1.27.65.42.24.81.52,1.14.84.34.33.61.72.82,1.17.21.45.32,1,.32,1.64,0,1.39-.53,2.49-1.58,3.28-1.05.8-2.44,1.19-4.16,1.19-1.24,0-2.46-.2-3.67-.59l-.06-.09.55-3.7.64-.11.77,3.16c.49.23,1.04.34,1.65.34.87,0,1.57-.22,2.1-.67.53-.44.8-1.04.8-1.78,0-.42-.08-.77-.25-1.06-.17-.29-.39-.55-.67-.78-.28-.23-.6-.43-.96-.61-.36-.18-.73-.35-1.11-.53-.42-.21-.84-.42-1.26-.65-.42-.22-.8-.5-1.13-.82-.33-.32-.6-.71-.8-1.16-.21-.45-.31-.99-.31-1.63,0-1.31.5-2.35,1.5-3.13,1-.78,2.3-1.16,3.9-1.16,1.01,0,2.17.16,3.47.47l.06.09-.63,3.31-.57.09-.75-2.77Zm8.83,10.2c0,.41,0,.79,0,1.12,0,.34.01.64.02.91,0,.18.12.3.35.36l1.27.36.03.51c-.95-.02-2.01-.03-3.16-.03s-2.26.01-3.21.03l-.05-.51,1.38-.38c.17-.05.26-.15.28-.32,0-.27.01-.58.02-.92,0-.34,0-.71,0-1.13v-8.2c0-.34,0-.66,0-.94,0-.28-.01-.54-.02-.77,0-.18-.09-.29-.25-.34l-1.38-.4-.03-.53c.95.03,2.01.04,3.16.04s2.26-.01,3.2-.04l.05.53-1.38.38c-.16.04-.25.14-.27.31,0,.25-.01.51-.02.8,0,.28,0,.59,0,.92v8.24Zm6.27,2.01c0,.2.09.32.26.36l1.32.36.03.53c-.93-.02-1.69-.03-2.29-.03s-1.36.01-2.31.03l-.05-.51,1.38-.38c.18-.06.27-.16.28-.32.01-.56.02-1.24.02-2.05v-8.2c0-.69,0-1.26-.02-1.71,0-.18-.09-.29-.25-.34l-1.38-.4-.03-.53c.96.03,1.7.04,2.21.04.67,0,1.31-.01,1.91-.04l6.84,8.57c.27.34.55.71.84,1.09-.01-.47-.02-.93-.02-1.37v-5.36c0-.66,0-1.24-.02-1.72,0-.16-.09-.26-.27-.31l-1.32-.36-.03-.55c.95.03,1.71.04,2.3.04s1.36-.01,2.29-.04l.05.53-1.4.4c-.16.05-.24.16-.25.34-.02.45-.03,1.02-.03,1.71v11.43l-1.18.11-8.1-10.15c-.24-.31-.52-.67-.83-1.1.01.51.02.97.02,1.4v6.52c0,.81,0,1.48.02,2.01m15.86-13.14h2.59c1.67,0,3.39-.01,5.19-.04l.07.08-.64,3.42-.55.08-.66-2.49h-3.98v5.46h.55c.6,0,1.24,0,1.92-.02.18,0,.3-.1.35-.28l.37-1.41.68-.03c-.02.99-.03,1.74-.03,2.23s.01,1.21.03,2.2l-.68.05-.38-1.45c-.06-.19-.16-.28-.32-.29-.7-.01-1.35-.02-1.96-.02h-.54v3.53c0,.76,0,1.5.02,2.24h4.11l1.3-2.7.63-.09-.25,3.85-.07.07c-1.71-.02-3.37-.03-4.99-.03h-2.72c-.88,0-1.79,0-2.73.02l-.05-.51,1.38-.38c.17-.05.26-.15.28-.32,0-.27.01-.58.02-.92,0-.34,0-.71,0-1.13v-8.2c0-.34,0-.66,0-.94,0-.28-.01-.54-.02-.77,0-.18-.09-.29-.25-.34l-1.38-.4-.03-.53c.96.03,1.87.04,2.73.04m16.98.93c-.44-.17-.91-.26-1.43-.26-.73,0-1.34.21-1.85.64-.5.43-.75.98-.75,1.65,0,.4.08.75.25,1.04.17.29.39.54.66.77.27.22.59.43.94.61.35.18.72.35,1.1.53.42.2.84.42,1.27.65.43.24.81.52,1.15.84.34.33.61.72.82,1.17.21.45.32,1,.32,1.64,0,1.39-.53,2.49-1.58,3.28-1.05.8-2.44,1.19-4.16,1.19-1.24,0-2.46-.2-3.67-.59l-.06-.09.55-3.7.64-.11.77,3.16c.5.23,1.04.34,1.65.34.87,0,1.57-.22,2.1-.67.53-.44.8-1.04.8-1.78,0-.42-.08-.77-.25-1.06-.16-.29-.39-.55-.67-.78-.28-.23-.6-.43-.96-.61-.36-.18-.73-.35-1.11-.53-.42-.21-.84-.42-1.26-.65-.42-.22-.8-.5-1.13-.82-.33-.32-.6-.71-.8-1.16-.21-.45-.31-.99-.31-1.63,0-1.31.5-2.35,1.5-3.13,1-.78,2.3-1.16,3.9-1.16,1.01,0,2.17.16,3.47.47l.06.09-.63,3.31-.57.09-.75-2.77Zm11.11,0c-.44-.17-.91-.26-1.43-.26-.73,0-1.34.21-1.85.64-.5.43-.76.98-.76,1.65,0,.4.08.75.25,1.04.17.29.39.54.66.77.27.22.59.43.94.61.35.18.72.35,1.1.53.42.2.84.42,1.27.65.42.24.81.52,1.14.84.34.33.61.72.82,1.17.21.45.32,1,.32,1.64,0,1.39-.53,2.49-1.58,3.28-1.05.8-2.44,1.19-4.16,1.19-1.24,0-2.46-.2-3.67-.59l-.06-.09.55-3.7.64-.11.77,3.16c.5.23,1.04.34,1.65.34.87,0,1.57-.22,2.1-.67.53-.44.8-1.04.8-1.78,0-.42-.08-.77-.25-1.06-.16-.29-.39-.55-.67-.78-.28-.23-.6-.43-.96-.61-.36-.18-.73-.35-1.11-.53-.42-.21-.84-.42-1.26-.65-.42-.22-.8-.5-1.13-.82-.33-.32-.6-.71-.8-1.16-.21-.45-.31-.99-.31-1.63,0-1.31.5-2.35,1.5-3.13,1-.78,2.3-1.16,3.9-1.16,1.01,0,2.17.16,3.47.47l.06.09-.63,3.31-.57.09-.75-2.77Zm13.87,10.2c0,.41,0,.79,0,1.12,0,.34.01.64.02.91,0,.18.12.3.35.36l1.27.36.03.51c-.95-.02-2.01-.03-3.16-.03s-2.27.01-3.21.03l-.05-.51,1.38-.38c.17-.05.26-.15.28-.32,0-.27.01-.58.02-.92,0-.34,0-.71,0-1.13v-8.2c0-.34,0-.66,0-.94,0-.28-.01-.54-.02-.77,0-.18-.09-.29-.25-.34l-1.38-.4-.03-.53c.96.03,2.01.04,3.16.04s2.26-.01,3.21-.04l.05.53-1.38.38c-.17.04-.25.14-.27.31,0,.25-.01.51-.02.8,0,.28,0,.59,0,.92v8.24Zm6.27,2.01c0,.2.09.32.26.36l1.32.36.03.53c-.93-.02-1.69-.03-2.29-.03s-1.36.01-2.31.03l-.05-.51,1.38-.38c.18-.06.27-.16.28-.32.01-.56.02-1.24.02-2.05v-8.2c0-.69,0-1.26-.02-1.71,0-.18-.09-.29-.25-.34l-1.38-.4-.03-.53c.96.03,1.7.04,2.21.04.67,0,1.31-.01,1.91-.04l6.84,8.57c.27.34.55.71.84,1.09-.01-.47-.02-.93-.02-1.37v-5.36c0-.66,0-1.24-.02-1.72,0-.16-.09-.26-.27-.31l-1.32-.36-.03-.55c.95.03,1.71.04,2.3.04s1.36-.01,2.29-.04l.05.53-1.4.4c-.16.05-.24.16-.25.34-.02.45-.03,1.02-.03,1.71v11.43l-1.18.11-8.1-10.15c-.24-.31-.52-.67-.83-1.1.01.51.02.97.02,1.4v6.52c0,.81,0,1.48.02,2.01m20.16-12.21c-.44-.17-.91-.26-1.43-.26-.73,0-1.34.21-1.85.64-.5.43-.75.98-.75,1.65,0,.4.08.75.25,1.04.17.29.39.54.66.77.27.22.59.43.94.61.35.18.72.35,1.1.53.42.2.84.42,1.27.65.42.24.81.52,1.14.84.34.33.61.72.82,1.17.21.45.32,1,.32,1.64,0,1.39-.53,2.49-1.58,3.28-1.05.8-2.44,1.19-4.16,1.19-1.24,0-2.46-.2-3.67-.59l-.06-.09.55-3.7.64-.11.77,3.16c.49.23,1.04.34,1.65.34.87,0,1.57-.22,2.1-.67.53-.44.8-1.04.8-1.78,0-.42-.08-.77-.25-1.06-.17-.29-.39-.55-.67-.78-.28-.23-.6-.43-.96-.61-.36-.18-.73-.35-1.11-.53-.42-.21-.84-.42-1.26-.65-.42-.22-.8-.5-1.13-.82-.33-.32-.6-.71-.8-1.16-.21-.45-.31-.99-.31-1.63,0-1.31.5-2.35,1.5-3.13,1-.78,2.3-1.16,3.9-1.16,1.01,0,2.17.16,3.47.47l.06.09-.63,3.31-.57.09-.75-2.77Zm8.83,10.2c0,.41,0,.79,0,1.12,0,.34.01.64.02.91,0,.18.12.3.35.36l1.27.36.03.51c-.95-.02-2.01-.03-3.16-.03s-2.26.01-3.21.03l-.05-.51,1.38-.38c.17-.05.26-.15.28-.32,0-.27.01-.58.02-.92,0-.34,0-.71,0-1.13v-8.2c0-.34,0-.66,0-.94,0-.28-.01-.54-.02-.77,0-.18-.09-.29-.25-.34l-1.38-.4-.03-.53c.95.03,2.01.04,3.16.04s2.26-.01,3.2-.04l.05.53-1.38.38c-.17.04-.25.14-.27.31,0,.25-.01.51-.02.8,0,.28,0,.59,0,.92v8.24Zm15.23-7.38l-.58.08-.72-2.84c-.58-.19-1.25-.28-2.01-.28-1.54,0-2.74.57-3.6,1.71-.86,1.14-1.29,2.72-1.29,4.72s.43,3.71,1.3,4.88c.86,1.17,2.08,1.75,3.64,1.75.37,0,.77-.03,1.19-.09v-2.71c0-.34,0-.65,0-.93,0-.28-.01-.54-.02-.77,0-.18-.09-.29-.26-.34l-1.4-.4-.03-.52c.97.02,2.03.03,3.17.03s2.18-.01,3.02-.03l.06.52-1.23.34c-.16.05-.25.15-.27.31,0,.27-.01.56-.02.84,0,.28,0,.59,0,.92v3.23l-.07.07c-1.47.33-2.88.5-4.21.5-2.5,0-4.51-.64-6.03-1.91-1.52-1.27-2.28-3.05-2.28-5.34,0-2.43.76-4.33,2.28-5.71,1.52-1.37,3.59-2.06,6.21-2.06,1.26,0,2.5.14,3.72.42l.07.09-.66,3.51Zm8.59,3.56v3.82c0,.81,0,1.49.02,2.03,0,.19.09.31.27.36l1.19.36.03.51c-.85-.02-1.85-.03-3.01-.03s-2.25.01-3.21.03l-.05-.51,1.38-.38c.18-.06.27-.16.28-.32.01-.56.02-1.24.02-2.05v-8.2c0-.69,0-1.26-.02-1.71,0-.18-.09-.29-.25-.34l-1.38-.4-.03-.53c.96.03,2.01.04,3.16.04s2.2-.01,3.04-.04l.06.53-1.22.35c-.17.05-.26.15-.27.32-.01.49-.02,1.07-.02,1.73v3.33h6.15v-3.33c0-.66,0-1.24-.02-1.73,0-.16-.09-.27-.27-.32l-1.2-.35-.03-.53c.87.03,1.9.04,3.09.04s2.2-.01,3.14-.04l.05.53-1.4.4c-.16.05-.24.16-.26.34-.01.45-.02,1.02-.02,1.71v8.2c0,.81,0,1.49.02,2.05.01.16.11.26.29.32l1.34.38.03.51c-.98-.02-2.06-.03-3.25-.03s-2.15.01-2.97.03l-.05-.51,1.24-.36c.17-.05.26-.17.27-.36.01-.54.02-1.22.02-2.03v-3.82h-6.15Zm18.37,7.05c-1.21,0-2.36.01-3.45.03l-.05-.51,1.65-.45c.17-.06.26-.17.27-.33.01-.51.02-1.18.02-1.99v-10.06h-2.96l-.94,2.74-.58.09-.27-3.84.07-.08c1.69.03,3.3.04,4.85.04h2.87c1.54,0,3.17-.01,4.88-.04l.06.08-.68,3.76-.58.09-.67-2.84h-2.97v10.06c0,.81,0,1.47.02,1.99,0,.16.1.27.28.33l1.61.45.03.51c-1.14-.02-2.29-.03-3.45-.03m14.43-13.43c-.44-.17-.91-.26-1.43-.26-.73,0-1.34.21-1.85.64-.5.43-.75.98-.75,1.65,0,.4.08.75.25,1.04.16.29.39.54.66.77.27.22.59.43.94.61.35.18.72.35,1.1.53.42.2.84.42,1.27.65.42.24.81.52,1.14.84.34.33.61.72.82,1.17.21.45.32,1,.32,1.64,0,1.39-.53,2.49-1.58,3.28-1.05.8-2.44,1.19-4.16,1.19-1.24,0-2.46-.2-3.67-.59l-.06-.09.55-3.7.64-.11.77,3.16c.49.23,1.04.34,1.65.34.87,0,1.57-.22,2.1-.67.53-.44.8-1.04.8-1.78,0-.42-.08-.77-.25-1.06-.17-.29-.39-.55-.67-.78-.28-.23-.6-.43-.96-.61-.36-.18-.73-.35-1.11-.53-.42-.21-.84-.42-1.26-.65-.42-.22-.8-.5-1.13-.82-.33-.32-.6-.71-.8-1.16-.21-.45-.31-.99-.31-1.63,0-1.31.5-2.35,1.5-3.13,1-.78,2.3-1.16,3.9-1.16,1.01,0,2.17.16,3.47.47l.06.09-.63,3.31-.57.09-.75-2.77Z"></path><polygon class="uuid-e99aa685-9af9-455d-b95e-0fac47f0d3e7" points="2.1 24.1 2.1 9.6 16.79 9.6 2.1 24.1"></polygon><path class="uuid-e99aa685-9af9-455d-b95e-0fac47f0d3e7" d="m2.1,64.5h0V28.74L21.48,9.6h32.95c1.07,0,2.09.08,3.07.23l-12.75,12.59H14.91v8.22h21.5l-12.99,12.82h-8.51v8.22h.18l-12.99,12.82Z"></path><path class="uuid-04ffe122-7a9f-4b4e-86d3-e2b36b8abb1e" d="m64.15,36.68c4.49,2.78,6.73,7,6.73,12.69,0,4.11-1.32,7.6-3.95,10.43-2.85,3.13-6.69,4.7-11.54,4.7H6.8l12.99-12.82h35.5c1.85,0,2.78-1.37,2.78-4.11s-.93-4.11-2.78-4.11h-27.17l12.99-12.82h13.32c1.85,0,2.78-1.37,2.78-4.11s-.93-4.11-2.78-4.11h-4.99l11.71-11.56c1.84.78,3.44,1.93,4.82,3.44,2.56,2.83,3.84,6.32,3.84,10.43,0,5.13-1.89,9.1-5.66,11.94"></path><path class="uuid-484e0fd1-c7a0-4831-82f3-648b6d4cbca9" d="m288.34,8.75V3.79h-1.77v-1.01h4.75v1.01h-1.77v4.96h-1.21Z"></path><path class="uuid-484e0fd1-c7a0-4831-82f3-648b6d4cbca9" d="m292.07,8.75V2.78h1.8l1.08,4.07,1.07-4.07h1.81v5.97h-1.12v-4.7l-1.19,4.7h-1.16l-1.18-4.7v4.7h-1.12Z"></path></svg>