<svg xmlns="http://www.w3.org/2000/svg" xmlns:xlink="http://www.w3.org/1999/xlink" width="484" height="484" viewBox="0 0 484 484">
    <defs>
        <filter id="prefix__a" width="227.4%" height="227.4%" x="-63.7%" y="-63.7%" filterUnits="objectBoundingBox">
            <feOffset in="SourceAlpha" result="shadowOffsetOuter1"></feOffset>
            <feGaussianBlur in="shadowOffsetOuter1" result="shadowBlurOuter1" stdDeviation="62"></feGaussianBlur>
            <feColorMatrix in="shadowBlurOuter1" result="shadowMatrixOuter1" values="0 0 0 0 0.0108865956 0 0 0 0 0.454693377 0 0 0 0 0.817143023 0 0 0 0.28 0"></feColorMatrix>
            <feOffset dy="3" in="SourceAlpha" result="shadowOffsetOuter2"></feOffset>
            <feGaussianBlur in="shadowOffsetOuter2" result="shadowBlurOuter2" stdDeviation="5"></feGaussianBlur>
            <feColorMatrix in="shadowBlurOuter2" result="shadowMatrixOuter2" values="0 0 0 0 0.00285362502 0 0 0 0 0.122423758 0 0 0 0 0.217146375 0 0 0 0.24 0"></feColorMatrix>
            <feMerge>
                <feMergeNode in="shadowMatrixOuter1"></feMergeNode>
                <feMergeNode in="shadowMatrixOuter2"></feMergeNode>
            </feMerge>
        </filter>
        <circle id="prefix__b" cx="146" cy="146" r="146"></circle>
    </defs>
    <g fill="none" transform="translate(96 96)">
        <use fill="#000" filter="url(#prefix__a)" xlink:href="#prefix__b"></use>
        <use fill="#2775CA" xlink:href="#prefix__b"></use>
        <path fill="#FFF" d="M119 246.124c0 3.657-2.412 4.876-6.03 4.876C68.354 236.371 37 194.922 37 146.159c0-48.764 31.353-90.213 75.97-104.842 3.618-1.219 6.03 1.22 6.03 4.876v8.534c0 2.438-1.206 4.876-3.618 6.096-34.97 13.41-59.088 46.325-59.088 85.336 0 39.01 25.324 73.145 59.088 85.336 2.412 1.219 3.618 3.657 3.618 6.095v8.534z"></path>
        <path fill="#FFF" d="M155.853 215.174c0 2.413-2.412 4.826-4.824 4.826h-9.647c-2.411 0-4.823-2.413-4.823-4.826v-14.48c-19.294-2.413-28.941-13.273-32.559-28.958 0-2.414 1.206-4.827 3.618-4.827h10.853c2.411 0 3.617 1.207 4.823 3.62 2.412 8.446 7.235 15.686 22.912 15.686 12.059 0 20.5-6.033 20.5-15.686 0-9.653-4.824-13.273-21.706-15.686-25.324-3.62-37.382-10.86-37.382-31.372 0-15.686 12.058-27.752 28.94-30.165v-14.48c0-2.413 2.413-4.826 4.824-4.826h9.647c2.412 0 4.824 2.413 4.824 4.826v14.48c14.47 2.413 24.118 10.86 26.53 24.132 0 2.413-1.207 4.826-3.618 4.826h-9.647c-2.412 0-3.618-1.206-4.824-3.62-2.412-8.446-8.441-12.065-19.294-12.065-12.059 0-18.088 6.033-18.088 14.479 0 8.446 3.617 13.273 21.706 15.686 25.323 3.62 37.382 10.86 37.382 31.372 0 15.686-12.059 28.958-30.147 32.578v14.48z"></path>
        <path fill="#FFF" d="M179.03 251.683c-3.618 1.219-6.03-1.22-6.03-4.876v-8.534c0-2.438 1.206-4.876 3.618-6.096 34.97-13.41 59.088-46.325 59.088-85.336 0-39.01-25.324-73.145-59.088-85.336-2.412-1.219-3.618-3.657-3.618-6.095v-8.534c0-3.657 2.412-4.876 6.03-4.876C222.44 56.629 255 98.078 255 146.841c0 48.764-31.353 90.213-75.97 104.842z"></path>
    </g>
</svg>